<?xml version="1.0" encoding="UTF-8" standalone="no"?>
<!-- Created with Inkscape (http://www.inkscape.org/) -->

<svg
   xmlns:dc="http://purl.org/dc/elements/1.1/"
   xmlns:cc="http://creativecommons.org/ns#"
   xmlns:rdf="http://www.w3.org/1999/02/22-rdf-syntax-ns#"
   xmlns:svg="http://www.w3.org/2000/svg"
   xmlns="http://www.w3.org/2000/svg"
   xmlns:sodipodi="http://sodipodi.sourceforge.net/DTD/sodipodi-0.dtd"
   xmlns:inkscape="http://www.inkscape.org/namespaces/inkscape"
   width="1.8520833mm"
   height="1.8520833mm"
   viewBox="0 0 1.8520833 1.8520833"
   version="1.1"
   id="svg2676"
   inkscape:version="0.92.3 (2405546, 2018-03-11)"
   sodipodi:docname="ghome-mini.svg">
  <defs
     id="defs2670" />
  <sodipodi:namedview
     id="base"
     pagecolor="#ffffff"
     bordercolor="#666666"
     borderopacity="1.0"
     inkscape:pageopacity="0.0"
     inkscape:pageshadow="2"
     inkscape:zoom="22.4"
     inkscape:cx="10.828278"
     inkscape:cy="-8.5737558"
     inkscape:document-units="mm"
     inkscape:current-layer="layer1"
     showgrid="false"
     inkscape:window-width="1920"
     inkscape:window-height="1057"
     inkscape:window-x="-8"
     inkscape:window-y="-8"
     inkscape:window-maximized="1" />
  <metadata
     id="metadata2673">
    <rdf:RDF>
      <cc:Work
         rdf:about="">
        <dc:format>image/svg+xml</dc:format>
        <dc:type
           rdf:resource="http://purl.org/dc/dcmitype/StillImage" />
        <dc:title></dc:title>
      </cc:Work>
    </rdf:RDF>
  </metadata>
  <g
     inkscape:label="Layer 1"
     inkscape:groupmode="layer"
     id="layer1"
     transform="translate(189.91414,22.937947)">
    <g
       transform="matrix(0.26458333,0,0,0.26458333,-494.5145,-93.92771)"
       style="display:inline"
       id="g6582">
      <path
         inkscape:label="#path4485"
         d="m 1154.3383,268.33153 a 3.5,3.5 0 0 1 3.8829,3.06478 3.5,3.5 0 0 1 -3.0599,3.88668 3.5,3.5 0 0 1 -3.8905,-3.05512 3.5,3.5 0 0 1 3.0503,-3.89427"
         sodipodi:open="true"
         sodipodi:end="4.5908268"
         sodipodi:start="4.595801"
         sodipodi:ry="3.5"
         sodipodi:rx="3.5"
         sodipodi:cy="271.80777"
         sodipodi:cx="1154.7455"
         sodipodi:type="arc"
         id="media_player.cast_master_bedroom_speaker"
         style="opacity:1;fill:#a5a4a6;fill-opacity:1;fill-rule:evenodd;stroke:none;stroke-width:0;stroke-linecap:round;stroke-linejoin:round;stroke-miterlimit:4;stroke-dasharray:none;stroke-dashoffset:0;stroke-opacity:1;paint-order:stroke fill markers" />
      <path
         d="m 1154.0757,271.35782 a 0.45249999,0.45249945 0 0 1 0.502,0.39624 0.45249999,0.45249945 0 0 1 -0.3956,0.50249 0.45249999,0.45249945 0 0 1 -0.503,-0.39499 0.45249999,0.45249945 0 0 1 0.3943,-0.50347"
         sodipodi:open="true"
         sodipodi:end="4.5908268"
         sodipodi:start="4.595801"
         sodipodi:ry="0.45249945"
         sodipodi:rx="0.45249999"
         sodipodi:cy="271.80725"
         sodipodi:cx="1154.1283"
         sodipodi:type="arc"
         id="path4487"
         style="opacity:1;fill:#ffc3c3;fill-opacity:1;fill-rule:evenodd;stroke:none;stroke-width:0.03146585;stroke-linecap:round;stroke-linejoin:round;stroke-miterlimit:4;stroke-dasharray:none;stroke-dashoffset:0;stroke-opacity:1;paint-order:stroke fill markers" />
      <path
         d="m 1155.3106,271.35782 a 0.45249999,0.45249945 0 0 1 0.502,0.39624 0.45249999,0.45249945 0 0 1 -0.3956,0.50249 0.45249999,0.45249945 0 0 1 -0.5029,-0.39499 0.45249999,0.45249945 0 0 1 0.3943,-0.50347"
         sodipodi:open="true"
         sodipodi:end="4.5908268"
         sodipodi:start="4.595801"
         sodipodi:ry="0.45249945"
         sodipodi:rx="0.45249999"
         sodipodi:cy="271.80725"
         sodipodi:cx="1155.3633"
         sodipodi:type="arc"
         id="path4487-0"
         style="opacity:1;fill:#ffffc3;fill-opacity:1;fill-rule:evenodd;stroke:none;stroke-width:0.03146585;stroke-linecap:round;stroke-linejoin:round;stroke-miterlimit:4;stroke-dasharray:none;stroke-dashoffset:0;stroke-opacity:1;paint-order:stroke fill markers" />
      <path
         d="m 1156.5456,271.35782 a 0.45249999,0.45249945 0 0 1 0.502,0.39624 0.45249999,0.45249945 0 0 1 -0.3956,0.50249 0.45249999,0.45249945 0 0 1 -0.503,-0.39499 0.45249999,0.45249945 0 0 1 0.3944,-0.50347"
         sodipodi:open="true"
         sodipodi:end="4.5908268"
         sodipodi:start="4.595801"
         sodipodi:ry="0.45249945"
         sodipodi:rx="0.45249999"
         sodipodi:cy="271.80725"
         sodipodi:cx="1156.5983"
         sodipodi:type="arc"
         id="path4487-0-6"
         style="opacity:1;fill:#c3ffc3;fill-opacity:1;fill-rule:evenodd;stroke:none;stroke-width:0.03146585;stroke-linecap:round;stroke-linejoin:round;stroke-miterlimit:4;stroke-dasharray:none;stroke-dashoffset:0;stroke-opacity:1;paint-order:stroke fill markers" />
      <path
         d="m 1152.8457,271.35782 a 0.45249999,0.45249945 0 0 1 0.502,0.39624 0.45249999,0.45249945 0 0 1 -0.3956,0.50249 0.45249999,0.45249945 0 0 1 -0.503,-0.39499 0.45249999,0.45249945 0 0 1 0.3943,-0.50347"
         sodipodi:open="true"
         sodipodi:end="4.5908268"
         sodipodi:start="4.595801"
         sodipodi:ry="0.45249945"
         sodipodi:rx="0.45249999"
         sodipodi:cy="271.80725"
         sodipodi:cx="1152.8983"
         sodipodi:type="arc"
         id="path4487-4"
         style="opacity:1;fill:#c3c3ff;fill-opacity:1;fill-rule:evenodd;stroke:none;stroke-width:0.03146585;stroke-linecap:round;stroke-linejoin:round;stroke-miterlimit:4;stroke-dasharray:none;stroke-dashoffset:0;stroke-opacity:1;paint-order:stroke fill markers" />
    </g>
  </g>
</svg>
