<?xml version="1.0" encoding="UTF-8"?>
<!-- Tropical Storm | Contributed by hsoJ95 on GitHub: https://github.com/hsoj95 -->
<svg width="56" height="48" version="1.1" xmlns="http://www.w3.org/2000/svg">
   <defs>
    <filter id="blur" x="-.16995" y="-.17864" width="1.3289" height="1.455">
      <feGaussianBlur in="SourceAlpha" stdDeviation="3" />
      <feOffset dx="0" dy="4" result="offsetblur" />
      <feComponentTransfer>
        <feFuncA slope="0.05" type="linear" />
      </feComponentTransfer>
      <feMerge>
        <feMergeNode />
        <feMergeNode in="SourceGraphic" />
      </feMerge>
    </filter>
        <style>
            <![CDATA[
            @keyframes storm {
                0% {
                    transform: rotate(0turn);
                }

                100% {
                    transform: rotate(-1turn);
                }
            }


            #storm {
                -webkit-animation-name: storm;
                -moz-animation-name: storm;
                animation-name: storm;
                -webkit-animation-duration: 5s;
                -moz-animation-duration: 5s;
                animation-duration: 5s;
                transform-origin: 50% 50%;
                -webkit-animation-timing-function: linear;
                -moz-animation-timing-function: linear;
                animation-timing-function: linear;
                -webkit-animation-iteration-count: infinite;
                -moz-animation-iteration-count: infinite;
                animation-iteration-count: infinite;
            }

            @keyframes error {
                0% {
                    fill: #cc0000;
                }

                50% {
                    fill: #ff0000;
                }

                100% {
                    fill: #cc0000;
                }
            }

            #Shape {
                -webkit-animation-name: error;
                -moz-animation-name: error;
                animation-name: error;
                -webkit-animation-duration: 1s;
                -moz-animation-duration: 1s;
                animation-duration: 1s;
                -webkit-animation-timing-function: linear;
                -moz-animation-timing-function: linear;
                animation-timing-function: linear;
                -webkit-animation-iteration-count: infinite;
                -moz-animation-iteration-count: infinite;
                animation-iteration-count: infinite;
            }
            ]]>
        </style>
    </defs>
    <g id="storm" transform="translate(16,-2)" fill="none" fill-rule="evenodd"
        style="-moz-animation-duration:5s;-moz-animation-iteration-count:infinite;-moz-animation-name:storm;-moz-animation-timing-function:linear;-webkit-animation-duration:5s;-webkit-animation-iteration-count:infinite;-webkit-animation-name:storm;-webkit-animation-timing-function:linear">
        <g transform="translate(15,20)" fill="#c00" fill-rule="nonzero">
            <path id=""
                d="m18.478 0.091701c0.04503-0.0026866 0.44719-0.0026866 0.89312-0.0013433 0.81178 0.0039403 1.0316 0.013164 1.6236 0.066 0.71569 0.064746 1.4989 0.18233 2.2033 0.33152 0.32351 0.068687 0.76189 0.17167 0.77187 0.18224 0.0025 0.001343-0.10742 0.00797-0.24234 0.013254-1.6374 0.059463-3.2012 0.47409-4.3191 1.1438-0.89052 0.53221-1.5562 1.2428-1.9509 2.0802-0.18364 0.38696-0.25231 0.67487-0.2373 0.98919 0.01995 0.44901 0.19362 0.83731 0.72063 1.6127 0.30733 0.4517 0.52458 0.7911 0.67703 1.0565 0.60575 1.0553 0.91551 2.1053 1.0117 3.434 0.02247 0.31433 0.0187 1.1662-0.0076 1.5056-0.08611 1.1412-0.24854 2.0023-0.53825 2.866-0.77564 2.3139-2.3782 4.3241-4.6589 5.8443-1.2939 0.86382-2.8403 1.569-4.4715 2.0393-1.3089 0.37773-2.5905 0.59436-4.1155 0.69734-0.34849 0.02373-1.861 0.02373-2.2107 0-0.89187-0.05946-1.5563-0.13997-2.3357-0.28128-0.53079-0.09511-1.3039-0.27081-1.2914-0.29194 0.0036854-0.0053 0.098607-0.01057 0.21231-0.01057 0.55578 0 1.4564-0.11355 2.1021-0.26543 1.4526-0.34075 2.5604-0.91263 3.3573-1.7328 0.35721-0.36851 0.62328-0.74355 0.83434-1.1781 0.17366-0.35919 0.24234-0.59955 0.25231-0.88621 0.019955-0.5349-0.12863-0.88755-0.77942-1.8477-0.22733-0.33672-0.47209-0.71713-0.58202-0.906-0.61573-1.0553-0.93924-2.1237-1.0392-3.426-0.017438-0.23113-0.027416-0.84797-0.017438-1.1266 0.059955-1.7117 0.38589-3.1249 1.0354-4.4867 0.90427-1.8952 2.4443-3.5713 4.449-4.8418 2.0896-1.3247 4.6626-2.1938 7.3542-2.4817 0.42346-0.044866 0.68198-0.064746 1.299-0.097701z" />
        </g>
    </g>
    <g class="warning" transform="translate(36,28)">
      <path
        d="m7.7791 2.906-5.9912 10.117c-0.56283 0.95042-0.24862 2.1772 0.7018 2.74 0.30853 0.18271 0.66051 0.27911 1.0191 0.27911h11.982c1.1046 0 2-0.89543 2-2 0-0.35857-0.0964-0.71056-0.27911-1.0191l-5.9912-10.117c-0.56283-0.95042-1.7896-1.2646-2.74-0.7018-0.28918 0.17125-0.53055 0.41262-0.7018 0.7018z"
        fill="#c00" />
      <path d="m9.5 10.5v-5" stroke="#fff" stroke-linecap="round" stroke-width="1.5" />
      <circle cx="9.5" cy="13" r="1" fill="#fff" />
    </g>
</svg>