<?xml version="1.0" encoding="UTF-8" standalone="no"?>
<!-- Created with Inkscape (http://www.inkscape.org/) -->

<svg
   width="6.5969443mm"
   height="6.5969443mm"
   viewBox="0 0 6.5969443 6.5969443"
   version="1.1"
   id="svg29534"
   xmlns="http://www.w3.org/2000/svg"
   xmlns:svg="http://www.w3.org/2000/svg">
  <defs
     id="defs29531">
    <clipPath
       clipPathUnits="userSpaceOnUse"
       id="clipPath24187">
      <path
         d="M 0,0 H 1920 V 1080 H 0 Z"
         id="path24185" />
    </clipPath>
  </defs>
  <g
     id="layer1"
     transform="translate(-84.794748,-99.896436)">
    <g
       id="g24181"
       transform="matrix(0.35277777,0,0,-0.35277777,-251.10257,243.16792)">
      <g
         id="g24183"
         clip-path="url(#clipPath24187)">
        <g
           id="g24189"
           transform="translate(964.5726,399.7967)">
          <path
             d="m 0,0 c -0.692,-0.337 -1.037,-1.141 -0.951,-1.743 0.057,-0.398 -0.31,-0.356 -0.31,-0.356 -0.517,0.132 -0.323,0.957 -0.323,0.957 0.247,3.24 -2.226,4.446 -2.244,4.454 0.909,-1.042 0.309,-3.425 -0.457,-4.037 L 1.132,-3.817 C 1.061,-3.68 0.979,-3.543 0.886,-3.407 -0.78,-0.964 0,0 0,0"
             style="fill:#000000;fill-opacity:1;fill-rule:nonzero;stroke:none"
             id="path24191" />
        </g>
        <g
           id="g24193"
           transform="translate(958.9894,399.812)">
          <path
             d="M 0,0 0.44,-0.251 C 0.461,0.156 0.664,0.609 0.668,0.617 0.382,0.439 0.166,0.229 0,0"
             style="fill:#000000;fill-opacity:1;fill-rule:nonzero;stroke:none"
             id="path24195" />
        </g>
        <g
           id="g24197"
           transform="translate(962.7297,390.6921)">
          <path
             d="M 0,0 C 1.017,0.285 1.915,0.854 2.528,1.587 L 1.393,2.234 C 1.425,1.654 1.068,0.951 0,0"
             style="fill:#000000;fill-opacity:1;fill-rule:nonzero;stroke:none"
             id="path24199" />
        </g>
        <g
           id="g24201"
           transform="translate(959.6268,395.1216)">
          <path
             d="m 0,0 c -0.148,-1.156 0.629,-1.75 0.996,-1.54 0.199,0.113 0.092,0.531 0.092,0.531 C 1,-0.712 0.955,-0.431 0.941,-0.166 L -1.276,1.099 C -1.323,1.021 -1.386,0.965 -1.475,0.939 -2.107,0.757 -2.22,1.38 -2.239,1.649 -2.244,1.72 -2.243,1.767 -2.243,1.767 -2.256,1.735 -2.268,1.704 -2.28,1.672 -4.274,-3.383 1.237,-4.444 1.55,-4.5 -1.502,-2.264 0,0 0,0"
             style="fill:#000000;fill-opacity:1;fill-rule:nonzero;stroke:none"
             id="path24203" />
        </g>
        <g
           id="g24205"
           transform="translate(961.4999,406.1239)">
          <path
             d="m 0,0 c -5.156,0 -9.35,-4.194 -9.35,-9.35 0,-5.155 4.194,-9.35 9.35,-9.35 5.156,0 9.35,4.195 9.35,9.35 C 9.35,-4.194 5.156,0 0,0 m 0,-1.909 c 4.103,0 7.441,-3.338 7.441,-7.441 0,-1.116 -0.248,-2.175 -0.691,-3.126 l -12.874,7.347 c 1.344,1.944 3.587,3.22 6.124,3.22 m 0,-14.882 c -4.103,0 -7.441,3.338 -7.441,7.441 0,0.886 0.156,1.735 0.441,2.524 L 4.192,-13.214 5.73,-14.092 C 4.364,-15.74 2.303,-16.791 0,-16.791"
             style="fill:#000000;fill-opacity:1;fill-rule:nonzero;stroke:none"
             id="path24207" />
        </g>
      </g>
    </g>
  </g>
</svg>
