<?xml version="1.0" encoding="UTF-8"?>
<!-- (c) ammap.com | SVG weather icons -->
<svg width="56" height="48" version="1.1" xmlns="http://www.w3.org/2000/svg">
  <defs>
    <filter id="blur" x="-.20655" y="-.21122" width="1.403" height="1.4997">
      <feGaussianBlur in="SourceAlpha" stdDeviation="3" />
      <feOffset dx="0" dy="4" result="offsetblur" />
      <feComponentTransfer>
        <feFuncA slope="0.05" type="linear" />
      </feComponentTransfer>
      <feMerge>
        <feMergeNode />
        <feMergeNode in="SourceGraphic" />
      </feMerge>
    </filter>
  </defs>
  <g transform="translate(16,-2)" filter="url(#blur)">
    <g class="am-weather-sun" transform="translate(0,16)">
      <line transform="translate(0,9)" y2="3" fill="none" stroke="#ffc04a" stroke-linecap="round" stroke-width="2" />
      <g transform="rotate(45)">
        <line transform="translate(0,9)" y2="3" fill="none" stroke="#ffc04a" stroke-linecap="round" stroke-width="2" />
      </g>
      <g transform="rotate(90)">
        <line transform="translate(0,9)" y2="3" fill="none" stroke="#ffc04a" stroke-linecap="round" stroke-width="2" />
      </g>
      <g transform="rotate(135)">
        <line transform="translate(0,9)" y2="3" fill="none" stroke="#ffc04a" stroke-linecap="round" stroke-width="2" />
      </g>
      <g transform="scale(-1)">
        <line transform="translate(0,9)" y2="3" fill="none" stroke="#ffc04a" stroke-linecap="round" stroke-width="2" />
      </g>
      <g transform="rotate(225)">
        <line transform="translate(0,9)" y2="3" fill="none" stroke="#ffc04a" stroke-linecap="round" stroke-width="2" />
      </g>
      <g transform="rotate(-90)">
        <line transform="translate(0,9)" y2="3" fill="none" stroke="#ffc04a" stroke-linecap="round" stroke-width="2" />
      </g>
      <g transform="rotate(-45)">
        <line transform="translate(0,9)" y2="3" fill="none" stroke="#ffc04a" stroke-linecap="round" stroke-width="2" />
      </g>
      <circle r="5" fill="#ffc04a" stroke="#ffc04a" stroke-width="2" />
    </g>
    <g stroke="#57a0ee" transform="translate(-16,4)" fill="none" stroke-width="2" stroke-linecap="round">
      <path d="M11,32H45" />
      <path d="M15.5,37H40.5" />
      <path d="M22.5,42H33.5" />
      <path stroke="#57a0ee"
        d="M28,31V9M28,22l11,-3.67M34,20l2,-4M34,20l4,2M28,22l-11,-3.67M22,20l-2,-4M22,20l-4,2M28,14.27l3.01,-3.02M28,14.27l-3.01,-3.02" />
    </g>
  </g>
</svg>