<?xml version="1.0" encoding="UTF-8"?>
<svg width="64" height="64" version="1.0" viewBox="0 0 64 64" xmlns="http://www.w3.org/2000/svg">
    <g transform="translate(-15.062,-16.984)">
        <g transform="matrix(.65 0 0 .65 6.8517 5.8403)">
            <g transform="matrix(.45542 0 0 .45542 26.271 23.868)" fill="#ffd42a" stroke-width="1.3153">
                <path
                    d="m12.473 121.08c-0.914 1.76-1.991 3.41-1.991 5.34l9e-3 0.81c0 4.17 3.266 6.69 7.02 6.69h121.32c3.76 0 6.99-3.12 6.99-7.29l-0.04-0.81c0-1.94-0.95-3.62-1.99-5.35l-60.084-107.78c-2.655-2.9458-6.959-2.9458-9.614 4e-3l-60.809 107.09z"
                    fill="#ffd42a" stroke="#000" stroke-width="8.9852" />
            </g>
            <circle transform="matrix(.54212 0 0 .54212 49.546 33.731)" cx="23.921" cy="74.475" r="8.0416"
                stroke-width="1.73" />
            <path
                d="m62.486 43.817c1.713 0 4.371 1.365 4.371 3.06l-1.279 17.615c0 1.695-1.379 3.06-3.092 3.06s-3.091-1.365-3.091-3.06l-1.493-17.615c0-1.695 2.871-3.06 4.584-3.06z"
                stroke-width="1.3153" />
        </g>
    </g>
</svg>